<?xml version="1.0" encoding="UTF-8" standalone="no"?>
<!DOCTYPE svg PUBLIC "-//W3C//DTD SVG 1.1//EN"
 "http://www.w3.org/Graphics/SVG/1.1/DTD/svg11.dtd">
<!-- Generated by graphviz version 2.44.1 (20200629.0846)
 -->
<!-- Title: g Pages: 1 -->
<svg width="400pt" height="1306pt"
 viewBox="0.00 0.00 400.00 1306.40" xmlns="http://www.w3.org/2000/svg" xmlns:xlink="http://www.w3.org/1999/xlink">
<g id="graph0" class="graph" transform="scale(1 1) rotate(0) translate(4 1302.4)">
<title>g</title>
<polygon fill="white" stroke="transparent" points="-4,4 -4,-1302.4 396,-1302.4 396,4 -4,4"/>
<g id="clust1" class="cluster">
<title>cluster_919691807</title>
<polygon fill="#ececec" stroke="black" points="8,-8 8,-1290.4 384,-1290.4 384,-8 8,-8"/>
<text text-anchor="middle" x="31.16" y="-1273.8" font-family="Times New Roman,serif" font-size="14.00">ruriel</text>
</g>
<g id="clust2" class="cluster">
<title>cluster_142041261</title>
<polygon fill="#d8d8d8" stroke="black" points="16,-16 16,-1257.6 376,-1257.6 376,-16 16,-16"/>
<text text-anchor="middle" x="50.05" y="-1241" font-family="Times New Roman,serif" font-size="14.00">assembly</text>
</g>
<!-- Agenda2126282697 -->
<g id="node1" class="node">
<title>Agenda2126282697</title>
<polygon fill="#ffffff" stroke="transparent" points="280,-1224.8 24,-1224.8 24,-934.8 280,-934.8 280,-1224.8"/>
<text text-anchor="start" x="29" y="-1207.2" font-family="Times New Roman,serif" font-size="14.00">(C)Agenda</text>
<text text-anchor="start" x="29" y="-1183.2" font-family="Times New Roman,serif" font-size="14.00">&#45; &#160;&#160;associates: Set&lt;Associate&gt; [0..*]</text>
<text text-anchor="start" x="29" y="-1159.2" font-family="Times New Roman,serif" font-size="14.00">&#45; &#160;&#160;createdAt: LocalDateTime [0..1]</text>
<text text-anchor="start" x="29" y="-1135.2" font-family="Times New Roman,serif" font-size="14.00">&#45; &#160;&#160;description: String [0..1]</text>
<text text-anchor="start" x="29" y="-1111.2" font-family="Times New Roman,serif" font-size="14.00">&#45; &#160;&#160;enabled: Boolean [0..1]</text>
<text text-anchor="start" x="29" y="-1087.2" font-family="Times New Roman,serif" font-size="14.00">&#45; &#160;&#160;id: Long [0..1]</text>
<text text-anchor="start" x="29" y="-1063.2" font-family="Times New Roman,serif" font-size="14.00">&#45; &#160;&#160;name: String [0..1]</text>
<text text-anchor="start" x="29" y="-1039.2" font-family="Times New Roman,serif" font-size="14.00">&#45; &#160;&#160;updatedAt: LocalDateTime [0..1]</text>
<text text-anchor="start" x="29" y="-1015.2" font-family="Times New Roman,serif" font-size="14.00">&#45; &#160;&#160;votingSession: VotingSession [0..1]</text>
<text text-anchor="start" x="29" y="-991.2" font-family="Times New Roman,serif" font-size="14.00">+ builder(): AgendaBuilder</text>
<text text-anchor="start" x="29" y="-967.2" font-family="Times New Roman,serif" font-size="14.00"># canEqual(other: Object): boolean</text>
<text text-anchor="start" x="28.51" y="-943.2" font-family="Times New Roman,serif" font-size="14.00">+ hasAssociate(associateId: Long): Boolean</text>
<polygon fill="black" stroke="black" points="24,-1199.8 24,-1199.8 280,-1199.8 280,-1199.8 24,-1199.8"/>
<polygon fill="black" stroke="black" points="24,-1007.8 24,-1007.8 280,-1007.8 280,-1007.8 24,-1007.8"/>
<polygon fill="none" stroke="black" points="24,-934.8 24,-1224.8 280,-1224.8 280,-934.8 24,-934.8"/>
</g>
<!-- Associate2126282697 -->
<g id="node2" class="node">
<title>Associate2126282697</title>
<polygon fill="#ffffff" stroke="transparent" points="236,-242 24,-242 24,-24 236,-24 236,-242"/>
<text text-anchor="start" x="29" y="-224.4" font-family="Times New Roman,serif" font-size="14.00">(C)Associate</text>
<text text-anchor="start" x="29" y="-200.4" font-family="Times New Roman,serif" font-size="14.00">&#45; &#160;&#160;agendas: Set&lt;Agenda&gt; [0..*]</text>
<text text-anchor="start" x="29" y="-176.4" font-family="Times New Roman,serif" font-size="14.00">&#45; &#160;&#160;createdAt: LocalDateTime [0..1]</text>
<text text-anchor="start" x="29" y="-152.4" font-family="Times New Roman,serif" font-size="14.00">&#45; &#160;&#160;document: String [0..1]</text>
<text text-anchor="start" x="29" y="-128.4" font-family="Times New Roman,serif" font-size="14.00">&#45; &#160;&#160;enabled: Boolean [0..1]</text>
<text text-anchor="start" x="29" y="-104.4" font-family="Times New Roman,serif" font-size="14.00">&#45; &#160;&#160;id: Long [0..1]</text>
<text text-anchor="start" x="29" y="-80.4" font-family="Times New Roman,serif" font-size="14.00">&#45; &#160;&#160;name: String [0..1]</text>
<text text-anchor="start" x="28.73" y="-56.4" font-family="Times New Roman,serif" font-size="14.00">&#45; &#160;&#160;updatedAt: LocalDateTime [0..1]</text>
<text text-anchor="start" x="29" y="-32.4" font-family="Times New Roman,serif" font-size="14.00">+ builder(): AssociateBuilder</text>
<polygon fill="black" stroke="black" points="24,-217 24,-217 236,-217 236,-217 24,-217"/>
<polygon fill="black" stroke="black" points="24,-49 24,-49 236,-49 236,-49 24,-49"/>
<polygon fill="none" stroke="black" points="24,-24 24,-242 236,-242 236,-24 24,-24"/>
</g>
<!-- Agenda2126282697&#45;&gt;Associate2126282697 -->
<g id="edge1" class="edge">
<title>Agenda2126282697&#45;&gt;Associate2126282697</title>
<path fill="none" stroke="black" d="M52.41,-934.76C44.8,-923.74 40,-916.8 40,-916.8 40,-916.8 40,-623.2 40,-623.2 40,-623.2 43.03,-571.6 43.03,-571.6 43.03,-571.6 80.75,-381.78 106.51,-252.17"/>
<polygon fill="black" stroke="black" points="109.98,-252.66 108.5,-242.17 103.12,-251.3 109.98,-252.66"/>
<text text-anchor="middle" x="71.99" y="-592.6" font-family="Times New Roman,serif" font-size="14.00">associates</text>
<text text-anchor="middle" x="71.99" y="-575.8" font-family="Times New Roman,serif" font-size="14.00">[0..*]</text>
</g>
<!-- VotingSession2126282697 -->
<g id="node4" class="node">
<title>VotingSession2126282697</title>
<polygon fill="#ffffff" stroke="transparent" points="368,-865.2 64,-865.2 64,-623.2 368,-623.2 368,-865.2"/>
<text text-anchor="start" x="69" y="-847.6" font-family="Times New Roman,serif" font-size="14.00">(C)VotingSession</text>
<text text-anchor="start" x="69" y="-823.6" font-family="Times New Roman,serif" font-size="14.00">&#45; &#160;&#160;agenda: Agenda [0..1]</text>
<text text-anchor="start" x="69" y="-799.6" font-family="Times New Roman,serif" font-size="14.00">&#45; &#160;&#160;createdAt: LocalDateTime [0..1]</text>
<text text-anchor="start" x="69" y="-775.6" font-family="Times New Roman,serif" font-size="14.00">&#45; &#160;&#160;endsAt: LocalDateTime [0..1]</text>
<text text-anchor="start" x="69" y="-751.6" font-family="Times New Roman,serif" font-size="14.00">&#45; &#160;&#160;id: Long [0..1]</text>
<text text-anchor="start" x="69" y="-727.6" font-family="Times New Roman,serif" font-size="14.00">&#45; &#160;&#160;startsAt: LocalDateTime [0..1]</text>
<text text-anchor="start" x="69" y="-703.6" font-family="Times New Roman,serif" font-size="14.00">&#45; &#160;&#160;updatedAt: LocalDateTime [0..1]</text>
<text text-anchor="start" x="69" y="-679.6" font-family="Times New Roman,serif" font-size="14.00">&#45; &#160;&#160;votes: Set&lt;Vote&gt; [0..*]</text>
<text text-anchor="start" x="69" y="-655.6" font-family="Times New Roman,serif" font-size="14.00">+ builder(): VotingSessionBuilder</text>
<text text-anchor="start" x="68.8" y="-631.6" font-family="Times New Roman,serif" font-size="14.00">+ hasAssociateVoted(associate: Associate): Boolean</text>
<polygon fill="black" stroke="black" points="64,-840.2 64,-840.2 368,-840.2 368,-840.2 64,-840.2"/>
<polygon fill="black" stroke="black" points="64,-672.2 64,-672.2 368,-672.2 368,-672.2 64,-672.2"/>
<polygon fill="none" stroke="black" points="64,-623.2 64,-865.2 368,-865.2 368,-623.2 64,-623.2"/>
</g>
<!-- Agenda2126282697&#45;&gt;VotingSession2126282697 -->
<g id="edge2" class="edge">
<title>Agenda2126282697&#45;&gt;VotingSession2126282697</title>
<path fill="none" stroke="black" d="M136.39,-934.76C135.19,-923.74 134.44,-916.8 134.44,-916.8 134.44,-916.8 134.44,-883.2 134.44,-883.2 134.44,-883.2 136.39,-879.91 139.68,-874.34"/>
<polygon fill="black" stroke="black" points="142.86,-875.83 144.94,-865.44 136.84,-872.27 142.86,-875.83"/>
<text text-anchor="middle" x="174.28" y="-904.2" font-family="Times New Roman,serif" font-size="14.00">votingSession</text>
<text text-anchor="middle" x="174.28" y="-887.4" font-family="Times New Roman,serif" font-size="14.00">[0..1]</text>
</g>
<!-- Associate2126282697&#45;&gt;Agenda2126282697 -->
<g id="edge3" class="edge">
<title>Associate2126282697&#45;&gt;Agenda2126282697</title>
<path fill="none" stroke="black" d="M122.89,-242.1C113.74,-381.22 99,-605.2 99,-605.2 99,-605.2 55,-623.2 55,-623.2 55,-623.2 55,-865.2 55,-865.2 55,-865.2 66.86,-891.31 82.28,-925.27"/>
<polygon fill="black" stroke="black" points="79.17,-926.89 86.49,-934.55 85.55,-924 79.17,-926.89"/>
<text text-anchor="middle" x="124.54" y="-592.6" font-family="Times New Roman,serif" font-size="14.00">agendas</text>
<text text-anchor="middle" x="124.54" y="-575.8" font-family="Times New Roman,serif" font-size="14.00">[0..*]</text>
</g>
<!-- Vote2126282697 -->
<g id="node3" class="node">
<title>Vote2126282697</title>
<polygon fill="#ffffff" stroke="transparent" points="366,-553.6 140,-553.6 140,-311.6 366,-311.6 366,-553.6"/>
<text text-anchor="start" x="145" y="-536" font-family="Times New Roman,serif" font-size="14.00">(C)Vote</text>
<text text-anchor="start" x="145" y="-512" font-family="Times New Roman,serif" font-size="14.00">&#45; &#160;&#160;associate: Associate [0..1]</text>
<text text-anchor="start" x="145" y="-488" font-family="Times New Roman,serif" font-size="14.00">&#45; &#160;&#160;content: Boolean [0..1]</text>
<text text-anchor="start" x="145" y="-464" font-family="Times New Roman,serif" font-size="14.00">&#45; &#160;&#160;createdAt: LocalDateTime [0..1]</text>
<text text-anchor="start" x="145" y="-440" font-family="Times New Roman,serif" font-size="14.00">&#45; &#160;&#160;id: Long [0..1]</text>
<text text-anchor="start" x="145" y="-416" font-family="Times New Roman,serif" font-size="14.00">&#45; &#160;&#160;updatedAt: LocalDateTime [0..1]</text>
<text text-anchor="start" x="144.7" y="-392" font-family="Times New Roman,serif" font-size="14.00">&#45; &#160;&#160;votingSession: VotingSession [0..1]</text>
<text text-anchor="start" x="145" y="-368" font-family="Times New Roman,serif" font-size="14.00">+ builder(): VoteBuilder</text>
<text text-anchor="start" x="145" y="-344" font-family="Times New Roman,serif" font-size="14.00"># canEqual(other: Object): boolean</text>
<text text-anchor="start" x="145" y="-320" font-family="Times New Roman,serif" font-size="14.00">+ hasAssociate(id: Long): Boolean</text>
<polygon fill="black" stroke="black" points="140,-528.6 140,-528.6 366,-528.6 366,-528.6 140,-528.6"/>
<polygon fill="black" stroke="black" points="140,-384.6 140,-384.6 366,-384.6 366,-384.6 140,-384.6"/>
<polygon fill="none" stroke="black" points="140,-311.6 140,-553.6 366,-553.6 366,-311.6 140,-311.6"/>
</g>
<!-- Vote2126282697&#45;&gt;Associate2126282697 -->
<g id="edge4" class="edge">
<title>Vote2126282697&#45;&gt;Associate2126282697</title>
<path fill="none" stroke="black" d="M203.33,-311.41C195.15,-291.64 186.69,-271.16 178.54,-251.45"/>
<polygon fill="black" stroke="black" points="181.76,-250.06 174.7,-242.15 175.29,-252.73 181.76,-250.06"/>
<text text-anchor="middle" x="220.26" y="-281" font-family="Times New Roman,serif" font-size="14.00">associate</text>
<text text-anchor="middle" x="220.26" y="-264.2" font-family="Times New Roman,serif" font-size="14.00">[0..1]</text>
</g>
<!-- Vote2126282697&#45;&gt;VotingSession2126282697 -->
<g id="edge5" class="edge">
<title>Vote2126282697&#45;&gt;VotingSession2126282697</title>
<path fill="none" stroke="black" d="M243.2,-553.71C240.85,-582.55 239,-605.2 239,-605.2 239,-605.2 238.52,-608.06 237.71,-612.95"/>
<polygon fill="black" stroke="black" points="234.23,-612.52 236.04,-622.96 241.14,-613.67 234.23,-612.52"/>
<text text-anchor="middle" x="280.28" y="-592.6" font-family="Times New Roman,serif" font-size="14.00">votingSession</text>
<text text-anchor="middle" x="280.28" y="-575.8" font-family="Times New Roman,serif" font-size="14.00">[0..1]</text>
</g>
<!-- VotingSession2126282697&#45;&gt;Agenda2126282697 -->
<g id="edge6" class="edge">
<title>VotingSession2126282697&#45;&gt;Agenda2126282697</title>
<path fill="none" stroke="black" d="M213.9,-865.31C213.4,-894.15 213,-916.8 213,-916.8 213,-916.8 211.82,-919.93 209.79,-925.33"/>
<polygon fill="black" stroke="black" points="206.49,-924.16 206.24,-934.76 213.04,-926.63 206.49,-924.16"/>
<text text-anchor="middle" x="232.82" y="-904.2" font-family="Times New Roman,serif" font-size="14.00">agenda</text>
<text text-anchor="middle" x="232.82" y="-887.4" font-family="Times New Roman,serif" font-size="14.00">[0..1]</text>
</g>
<!-- VotingSession2126282697&#45;&gt;Vote2126282697 -->
<g id="edge7" class="edge">
<title>VotingSession2126282697&#45;&gt;Vote2126282697</title>
<path fill="none" stroke="black" d="M206.14,-622.96C205.25,-612.16 204.68,-605.2 204.68,-605.2 204.68,-605.2 204.68,-571.6 204.68,-571.6 204.68,-571.6 205.73,-568.6 207.52,-563.49"/>
<polygon fill="black" stroke="black" points="210.9,-564.44 210.9,-553.84 204.29,-562.12 210.9,-564.44"/>
<text text-anchor="middle" x="219.16" y="-592.6" font-family="Times New Roman,serif" font-size="14.00">votes</text>
<text text-anchor="middle" x="219.16" y="-575.8" font-family="Times New Roman,serif" font-size="14.00">[0..*]</text>
</g>
</g>
</svg>
